<svg width="0" height="0" class="hidden">
  <symbol version="1.0" xmlns="http://www.w3.org/2000/svg" preserveAspectRatio="xMidYMid meet" viewBox="0 0 2861.000000 842.000000" id="beatport">
    <g transform="translate(0.000000,842.000000) scale(0.100000,-0.100000)"  stroke="none">
      <path d="M1957 7313 c-3 -1062 -4 -1079 -25 -1174 -40 -175 -107 -323 -208
-455 -29 -39 -430 -441 -890 -894 l-835 -823 373 -374 c205 -205 376 -373 380
-373 4 0 318 309 699 687 519 516 676 667 627 603 -488 -636 -575 -1512 -223
-2238 108 -223 206 -362 385 -546 269 -276 593 -464 970 -560 511 -130 1069
-70 1527 165 200 103 355 217 527 387 336 332 546 765 606 1247 15 121 16 388
1 505 -73 574 -369 1087 -822 1427 -258 193 -564 328 -886 389 -189 36 -478
44 -673 19 -372 -47 -724 -188 -1014 -407 l-80 -60 42 49 c179 205 266 331
361 524 113 228 185 481 210 743 7 70 11 497 11 1173 l0 1063 -529 0 -530 0
-4 -1077z m1999 -2978 c355 -62 666 -285 832 -595 169 -315 175 -685 17 -1006
-168 -343 -486 -585 -854 -648 -370 -63 -736 56 -1006 328 -294 297 -408 712
-300 1093 30 107 118 286 180 368 191 254 466 418 785 468 65 11 266 6 346 -8z"></path>
      <path d="M8010 3215 l0 -2025 868 0 c924 0 998 3 1218 51 505 109 839 406 924
820 67 325 9 631 -159 842 -130 163 -383 302 -636 349 -36 6 -63 13 -61 15 2
3 53 21 114 42 159 54 250 109 358 216 106 104 160 190 203 320 40 122 55 242
48 395 -8 159 -34 268 -96 395 -147 299 -444 490 -881 566 -178 31 -415 38
-1187 39 l-713 0 0 -2025z m1681 1450 c274 -41 456 -183 515 -402 20 -77 20
-250 -1 -327 -50 -186 -204 -327 -424 -389 -72 -20 -101 -21 -593 -25 l-518
-3 0 580 0 581 463 0 c351 0 485 -4 558 -15z m0 -1705 c361 -34 587 -191 654
-455 19 -76 19 -234 0 -309 -48 -182 -181 -317 -382 -387 -148 -51 -154 -52
-740 -56 l-553 -4 0 610 0 611 458 0 c251 0 505 -5 563 -10z"></path>
      <path d="M17450 4560 l0 -410 -255 0 -255 0 0 -275 0 -275 255 0 254 0 4 -897
c3 -815 5 -905 21 -972 68 -288 210 -439 481 -513 75 -20 107 -22 493 -26
l412 -4 0 276 0 275 -302 3 c-273 3 -306 5 -338 22 -78 41 -113 95 -130 197
-6 40 -10 357 -10 852 l0 787 355 0 355 0 0 275 0 275 -355 0 -355 0 0 410 0
410 -315 0 -315 0 0 -410z"></path>
      <path d="M27200 3493 c0 -813 5 -1534 10 -1603 28 -384 176 -585 495 -672 75
-20 106 -22 493 -26 l412 -3 0 275 0 275 -302 3 c-296 3 -304 4 -351 27 -30
14 -58 38 -74 62 -52 79 -53 90 -53 962 l0 807 360 0 360 0 0 275 0 275 -360
0 -360 0 0 410 0 410 -315 0 -315 0 0 -1477z"></path>
      <path d="M12335 4164 c-610 -95 -1035 -511 -1155 -1131 -42 -217 -43 -517 -1
-729 100 -515 435 -903 918 -1064 335 -112 749 -117 1060 -15 201 67 347 157
499 309 156 155 248 310 308 520 41 141 75 126 -283 126 l-308 0 -27 -73 c-76
-207 -246 -356 -481 -419 -119 -31 -356 -32 -473 0 -263 71 -454 255 -540 522
-24 74 -52 224 -52 281 l0 39 1114 0 1114 0 5 33 c34 191 6 487 -65 702 -165
494 -586 827 -1138 901 -132 17 -377 16 -495 -2z m510 -514 c221 -56 390 -190
485 -385 33 -68 80 -221 80 -262 0 -10 -166 -13 -795 -13 l-794 0 5 33 c38
218 140 389 299 502 108 78 243 131 375 149 74 9 266 -3 345 -24z"></path>
      <path d="M15310 4166 c-588 -85 -946 -394 -1015 -879 l-7 -47 308 2 308 3 8
39 c12 57 66 152 115 202 130 135 353 205 598 191 297 -19 498 -148 565 -364
16 -52 20 -93 20 -204 l0 -139 -412 0 c-420 0 -583 -8 -740 -35 -401 -70 -684
-270 -793 -560 -45 -118 -58 -198 -58 -355 0 -167 19 -254 79 -377 159 -320
586 -515 1077 -489 391 20 663 164 894 472 l22 29 1 -40 c2 -113 54 -238 128
-306 102 -95 206 -119 515 -119 l227 0 0 269 0 269 -98 4 c-117 4 -155 22
-192 89 l-25 44 -5 735 -6 735 -26 95 c-107 396 -399 643 -858 725 -129 23
-499 29 -630 11z m897 -1798 c-6 -148 -22 -218 -72 -323 -90 -188 -260 -322
-480 -377 -76 -19 -116 -22 -260 -22 -158 0 -176 2 -252 27 -183 61 -289 186
-300 356 -13 189 67 331 230 406 130 60 162 63 676 64 l464 1 -6 -132z"></path>
      <path d="M20465 4169 c-280 -41 -534 -183 -716 -401 l-47 -57 -16 87 c-8 48
-25 147 -37 220 l-22 132 -274 0 -273 0 0 -2060 0 -2060 315 0 315 0 0 782 0
783 32 -40 c221 -278 587 -424 1002 -401 350 20 639 138 871 358 322 304 484
776 446 1294 -25 338 -113 604 -274 830 -127 178 -270 300 -472 399 -143 71
-258 107 -410 130 -108 16 -341 18 -440 4z m258 -534 c220 -38 408 -161 536
-348 120 -176 180 -424 167 -687 -14 -294 -103 -509 -286 -690 -96 -96 -166
-141 -279 -181 -109 -38 -222 -53 -355 -46 -220 12 -366 76 -516 227 -169 169
-251 353 -281 627 -42 390 89 754 340 947 59 45 169 105 235 126 122 39 299
50 439 25z"></path>
      <path d="M23480 4166 c-642 -93 -1083 -507 -1221 -1146 -20 -92 -23 -134 -23
-345 -1 -185 3 -261 16 -330 135 -717 647 -1152 1401 -1191 712 -37 1300 334
1506 952 68 205 99 470 81 697 -20 246 -69 426 -167 620 -194 381 -533 630
-988 727 -130 28 -461 36 -605 16z m425 -531 c338 -59 593 -320 676 -694 40
-180 35 -418 -12 -599 -29 -111 -106 -265 -176 -353 -178 -223 -434 -325 -749
-298 -119 10 -212 37 -319 92 -109 56 -250 196 -318 317 -112 201 -160 475
-127 737 41 321 210 591 450 717 165 86 375 116 575 81z"></path>
      <path d="M25400 2670 l0 -1480 315 0 314 0 4 853 c3 939 1 905 68 1077 70 183
172 304 311 370 121 57 201 70 433 70 l195 0 0 297 0 296 -162 -6 c-90 -3
-201 -13 -247 -22 -231 -45 -413 -159 -554 -348 -27 -37 -51 -66 -52 -65 -1 2
-17 101 -35 221 l-33 217 -279 0 -278 0 0 -1480z"></path>
    </g>
  </symbol>


  <symbol version="1.0" xmlns="http://www.w3.org/2000/svg" preserveAspectRatio="xMidYMid meet" viewBox="0 0 3432.000000 940.000000" id="spotify">
    <g transform="translate(0.000000,940.000000) scale(0.100000,-0.100000)" stroke="none">
      <path d="M4680 9249 c-1323 -114 -2523 -787 -3306 -1854 -455 -620 -745 -1343
-844 -2105 -128 -990 73 -2002 571 -2866 604 -1051 1636 -1840 2795 -2138 408
-105 740 -146 1168 -146 520 0 951 71 1442 235 911 305 1699 888 2265 1677
771 1074 1033 2449 714 3743 -274 1113 -962 2084 -1925 2717 -647 426 -1364
672 -2145 738 -139 11 -596 11 -735 -1z m80 -2553 c1201 -103 2258 -391 3296
-901 260 -127 307 -163 364 -278 65 -132 62 -267 -7 -399 -61 -117 -173 -195
-313 -220 -106 -18 -174 0 -381 103 -966 479 -1940 747 -3054 839 -217 18
-759 24 -1000 11 -371 -20 -757 -65 -1080 -127 -185 -36 -248 -40 -325 -20
-125 32 -220 108 -275 220 -84 170 -61 349 62 486 87 96 149 121 453 174 348
61 700 102 1070 126 210 13 974 4 1190 -14z m-35 -1580 c996 -98 1871 -348
2727 -783 201 -102 259 -144 300 -220 112 -205 2 -454 -225 -509 -105 -26
-156 -13 -367 95 -1369 699 -2925 916 -4415 615 -202 -40 -252 -40 -341 0 -74
34 -129 88 -166 164 -29 59 -33 76 -33 152 0 71 4 94 26 141 37 78 90 134 163
168 133 65 752 161 1256 195 154 10 914 -3 1075 -18z m-85 -1410 c581 -60
1106 -185 1635 -389 166 -64 329 -138 560 -255 257 -131 309 -170 338 -257 56
-162 -36 -323 -202 -355 -77 -14 -127 1 -291 90 -474 258 -1042 459 -1579 559
-373 70 -650 95 -1046 95 -418 -1 -753 -36 -1138 -120 -240 -52 -309 -44 -395
46 -120 123 -84 341 69 420 101 52 687 151 1069 180 177 13 799 4 980 -14z"></path>
      <path d="M25986 7255 c-144 -37 -288 -153 -351 -286 -108 -228 -43 -502 155
-650 229 -173 572 -150 770 50 108 109 150 214 150 371 0 182 -71 323 -215
425 -101 73 -185 98 -330 102 -81 1 -139 -3 -179 -12z"></path>
      <path d="M28585 7264 c-138 -19 -191 -29 -260 -51 -355 -112 -615 -402 -715
-798 -37 -144 -50 -277 -50 -490 l0 -175 -294 0 c-293 0 -295 0 -310 -22 -14
-19 -16 -72 -16 -370 0 -335 1 -349 20 -368 19 -19 33 -20 310 -20 l290 0 0
-1274 0 -1275 22 -15 c20 -14 80 -16 461 -16 283 0 445 4 458 10 19 11 19 35
19 1290 l0 1280 368 0 367 0 532 -1157 532 -1156 -290 -637 c-159 -350 -289
-645 -289 -654 0 -9 12 -21 26 -27 17 -6 199 -9 495 -7 413 3 470 5 484 19 14
13 1908 4301 1922 4350 2 9 -3 23 -12 33 -15 14 -62 16 -469 16 -419 0 -454
-1 -468 -17 -9 -10 -208 -481 -443 -1048 -236 -566 -431 -1033 -434 -1037 -3
-4 -199 457 -436 1024 -236 567 -438 1042 -448 1055 l-18 23 -711 0 -711 0 6
163 c7 172 19 236 62 324 76 154 267 252 491 253 125 0 252 -36 422 -121 137
-68 172 -77 172 -45 0 21 -310 758 -327 778 -35 39 -254 115 -415 143 -85 16
-289 27 -343 19z"></path>
      <path d="M13065 7104 c-312 -36 -495 -82 -715 -178 -268 -118 -499 -307 -646
-527 -168 -252 -231 -529 -193 -844 59 -484 325 -782 899 -1008 154 -60 287
-102 641 -202 377 -107 488 -144 624 -209 248 -119 327 -223 328 -431 1 -340
-188 -501 -630 -537 -354 -29 -722 53 -1119 247 -248 122 -447 265 -611 440
-49 52 -96 95 -104 95 -38 0 -39 -10 -39 -512 0 -418 2 -493 15 -518 18 -35
143 -144 238 -207 489 -326 1346 -481 1967 -357 636 127 1084 517 1215 1057
54 221 54 470 1 678 -110 433 -449 735 -1083 965 -54 20 -289 93 -523 164
-589 178 -740 243 -810 348 -118 178 -19 428 217 550 161 82 290 111 528 119
181 6 277 -2 435 -33 311 -62 659 -223 918 -426 71 -56 108 -61 129 -18 16 32
18 835 2 893 -8 31 -23 46 -85 87 -262 177 -650 308 -1054 354 -121 14 -454
20 -545 10z"></path>
      <path d="M23659 6069 c-420 -330 -770 -608 -776 -617 -10 -12 -13 -75 -13
-233 0 -214 0 -218 22 -233 19 -14 66 -16 315 -16 l293 0 0 -752 c0 -890 6
-984 77 -1196 107 -322 346 -545 676 -631 132 -34 239 -44 427 -38 241 8 433
51 602 136 l73 36 3 358 c2 300 0 358 -12 363 -8 3 -42 -9 -76 -26 -80 -40
-187 -68 -298 -76 -210 -15 -367 59 -444 210 -57 112 -58 124 -58 904 l0 712
421 0 c271 0 427 4 440 10 18 10 19 25 19 380 0 355 -1 370 -19 380 -13 6
-169 10 -440 10 l-421 0 0 441 c0 438 -3 479 -34 479 -8 0 -357 -270 -777
-601z"></path>
      <path d="M20835 5823 c-667 -58 -1215 -416 -1486 -971 -255 -523 -229 -1191
67 -1685 165 -274 436 -521 728 -662 530 -256 1212 -256 1742 0 412 199 729
554 877 981 73 210 103 418 94 654 -17 455 -180 840 -487 1151 -301 305 -686
482 -1149 529 -96 9 -294 11 -386 3z m404 -853 c458 -110 732 -569 645 -1081
-66 -383 -318 -650 -683 -724 -114 -24 -335 -16 -436 14 -100 30 -222 92 -301
155 -233 183 -360 512 -324 842 41 382 253 663 585 773 162 54 344 61 514 21z"></path>
      <path d="M17252 5799 c-195 -26 -381 -96 -539 -202 -171 -115 -295 -243 -427
-442 l-66 -99 0 325 c0 278 -2 328 -16 347 l-15 22 -444 0 c-390 0 -445 -2
-459 -16 -14 -14 -16 -227 -16 -2193 0 -2014 1 -2180 17 -2192 13 -11 98 -14
460 -14 429 0 445 1 459 19 12 17 14 152 14 875 l0 855 45 -73 c178 -288 432
-504 708 -600 159 -55 272 -74 457 -74 183 -1 292 15 442 64 553 179 943 702
1033 1383 20 153 19 430 -1 588 -53 412 -217 762 -479 1023 -205 205 -427 327
-703 385 -114 24 -359 34 -470 19z m111 -825 c40 -9 113 -35 162 -59 291 -139
452 -475 432 -899 -14 -286 -96 -498 -257 -658 -133 -132 -305 -198 -511 -198
-123 0 -203 18 -317 71 -268 124 -510 411 -643 762 l-33 88 29 87 c39 122 143
321 219 423 151 201 352 338 561 382 94 21 268 21 358 1z"></path>
      <path d="M33240 5790 c-209 -27 -385 -180 -429 -371 -16 -68 -13 -218 5 -280
87 -297 438 -443 732 -304 350 165 383 667 57 877 -99 64 -241 95 -365 78z
m171 -104 c159 -34 263 -133 304 -291 51 -198 -37 -395 -213 -478 -91 -43
-226 -50 -329 -18 -168 52 -273 200 -273 384 0 173 76 303 216 369 102 48 184
57 295 34z"></path>
      <path d="M33120 5300 l0 -240 55 0 55 0 0 95 0 95 28 0 c22 0 39 -16 100 -95
l73 -95 64 0 c36 0 65 4 65 9 0 5 -19 33 -43 63 -24 29 -56 70 -71 90 l-28 37
34 14 c56 23 88 70 88 127 0 41 -5 54 -33 83 -44 47 -88 57 -249 57 l-138 0 0
-240z m270 137 c16 -8 26 -23 28 -40 3 -23 -2 -30 -32 -42 -19 -8 -63 -15 -96
-15 l-60 0 0 55 0 55 68 0 c37 0 78 -6 92 -13z"></path>
      <path d="M25688 5739 c-17 -9 -18 -100 -18 -1669 0 -1630 0 -1659 19 -1670 13
-6 175 -10 458 -10 381 0 441 2 461 16 l22 15 0 1648 c0 1584 -1 1649 -18
1664 -17 15 -63 17 -463 17 -283 0 -450 -4 -461 -11z"></path>
    </g>
  </symbol>



  <symbol version="1.0" xmlns="http://www.w3.org/2000/svg" preserveAspectRatio="xMidYMid meet" viewBox="0 0 450.000000 112.000000" id="apple">
    <g transform="translate(0.000000,112.000000) scale(0.100000,-0.100000)" stroke="none">
      <path d="M606 1075 c-74 -26 -146 -122 -146 -194 0 -34 0 -34 41 -28 78 10
150 95 165 195 7 48 3 50 -60 27z"></path>
      <path d="M3592 997 c-49 -52 -13 -137 57 -137 44 0 67 14 79 50 13 36 -1 86
-28 100 -34 18 -85 12 -108 -13z"></path>
      <path d="M1060 525 l0 -485 65 0 65 0 2 361 3 361 145 -361 145 -361 55 0 55
0 145 361 145 361 3 -361 2 -361 70 0 70 0 0 485 0 485 -89 0 -89 0 -154 -385
c-84 -212 -155 -385 -158 -385 -3 0 -74 173 -158 385 l-154 385 -84 0 -84 0 0
-485z"></path>
      <path d="M205 811 c-129 -60 -190 -225 -151 -410 29 -138 130 -307 207 -346
38 -20 79 -19 139 5 64 25 106 25 170 0 28 -11 69 -20 92 -20 38 0 47 6 98 58
51 53 121 171 119 203 0 8 -19 28 -41 44 -113 82 -119 260 -13 354 l34 30 -20
24 c-10 14 -42 37 -71 51 -64 32 -135 34 -215 6 -72 -25 -95 -25 -161 0 -65
25 -135 25 -187 1z"></path>
      <path d="M4077 760 c-60 -16 -111 -46 -151 -91 -104 -114 -122 -314 -44 -469
59 -114 160 -167 307 -158 142 9 243 88 272 216 l7 32 -67 0 -66 0 -24 -46
c-61 -115 -230 -113 -298 3 -23 40 -28 61 -31 138 -4 78 -1 99 18 143 13 29
36 63 52 77 87 73 212 49 260 -50 22 -45 22 -45 74 -45 81 0 85 3 69 57 -25
84 -80 142 -170 182 -39 17 -159 23 -208 11z"></path>
      <path d="M3057 746 c-99 -37 -150 -102 -149 -191 0 -57 17 -98 54 -131 37 -34
77 -51 189 -79 116 -29 145 -44 159 -81 27 -69 -58 -134 -158 -120 -56 7 -92
31 -112 74 -15 31 -16 32 -86 32 l-72 0 8 -36 c21 -91 97 -154 210 -174 152
-27 291 28 341 135 25 53 24 101 -3 155 -29 57 -88 90 -218 120 -120 27 -155
44 -170 81 -29 70 35 125 138 117 68 -5 96 -22 119 -75 13 -32 14 -33 79 -33
l66 0 -7 33 c-16 74 -58 128 -125 163 -47 24 -209 30 -263 10z"></path>
      <path d="M2172 483 c4 -304 8 -325 85 -395 98 -87 278 -70 353 34 l30 41 0
-61 0 -62 70 0 70 0 0 355 0 355 -75 0 -74 0 -3 -244 c-3 -230 -4 -246 -24
-273 -54 -73 -151 -96 -222 -53 -57 35 -62 61 -62 330 l0 240 -76 0 -76 0 4
-267z"></path>
      <path d="M3580 395 l0 -355 70 0 70 0 0 355 0 355 -70 0 -70 0 0 -355z"></path>
    </g>
  </symbol>

  <symbol xmlns="http://www.w3.org/2000/svg" viewBox="409.289 277.787 512 114.301" id="youtube">
    <g viewBox="0 0 90 20" preserveAspectRatio="xMidYMid meet" transform="matrix(5.715038, 0, 0, 5.715038, 409.288757, 277.787231)">
      <g>
        <path d="M27.9727 3.12324C27.6435 1.89323 26.6768 0.926623 25.4468 0.597366C23.2197 2.24288e-07 14.285 0 14.285 0C14.285 0 5.35042 2.24288e-07 3.12323 0.597366C1.89323 0.926623 0.926623 1.89323 0.597366 3.12324C2.24288e-07 5.35042 0 10 0 10C0 10 2.24288e-07 14.6496 0.597366 16.8768C0.926623 18.1068 1.89323 19.0734 3.12323 19.4026C5.35042 20 14.285 20 14.285 20C14.285 20 23.2197 20 25.4468 19.4026C26.6768 19.0734 27.6435 18.1068 27.9727 16.8768C28.5701 14.6496 28.5701 10 28.5701 10C28.5701 10 28.5677 5.35042 27.9727 3.12324Z" ></path>
        <path d="M11.4253 14.2854L18.8477 10.0004L11.4253 5.71533V14.2854Z" fill="black"></path>
      </g>
      <g>
        <g id="youtube-paths">
          <path d="M34.6024 13.0036L31.3945 1.41846H34.1932L35.3174 6.6701C35.6043 7.96361 35.8136 9.06662 35.95 9.97913H36.0323C36.1264 9.32532 36.3381 8.22937 36.665 6.68892L37.8291 1.41846H40.6278L37.3799 13.0036V18.561H34.6001V13.0036H34.6024Z"></path>
          <path d="M41.4697 18.1937C40.9053 17.8127 40.5031 17.22 40.2632 16.4157C40.0257 15.6114 39.9058 14.5437 39.9058 13.2078V11.3898C39.9058 10.0422 40.0422 8.95805 40.315 8.14196C40.5878 7.32588 41.0135 6.72851 41.592 6.35457C42.1706 5.98063 42.9302 5.79248 43.871 5.79248C44.7976 5.79248 45.5384 5.98298 46.0981 6.36398C46.6555 6.74497 47.0647 7.34234 47.3234 8.15137C47.5821 8.96275 47.7115 10.0422 47.7115 11.3898V13.2078C47.7115 14.5437 47.5845 15.6161 47.3329 16.4251C47.0812 17.2365 46.672 17.8292 46.1075 18.2031C45.5431 18.5771 44.7764 18.7652 43.8098 18.7652C42.8126 18.7675 42.0342 18.5747 41.4697 18.1937ZM44.6353 16.2323C44.7905 15.8231 44.8705 15.1575 44.8705 14.2309V10.3292C44.8705 9.43077 44.7929 8.77225 44.6353 8.35833C44.4777 7.94206 44.2026 7.7351 43.8074 7.7351C43.4265 7.7351 43.156 7.94206 43.0008 8.35833C42.8432 8.77461 42.7656 9.43077 42.7656 10.3292V14.2309C42.7656 15.1575 42.8408 15.8254 42.9914 16.2323C43.1419 16.6415 43.4123 16.8461 43.8074 16.8461C44.2026 16.8461 44.4777 16.6415 44.6353 16.2323Z"></path>
          <path d="M56.8154 18.5634H54.6094L54.3648 17.03H54.3037C53.7039 18.1871 52.8055 18.7656 51.6061 18.7656C50.7759 18.7656 50.1621 18.4928 49.767 17.9496C49.3719 17.4039 49.1743 16.5526 49.1743 15.3955V6.03751H51.9942V15.2308C51.9942 15.7906 52.0553 16.188 52.1776 16.4256C52.2999 16.6631 52.5045 16.783 52.7914 16.783C53.036 16.783 53.2712 16.7078 53.497 16.5573C53.7228 16.4067 53.8874 16.2162 53.9979 15.9858V6.03516H56.8154V18.5634Z"></path>
          <path d="M64.4755 3.68758H61.6768V18.5629H58.9181V3.68758H56.1194V1.42041H64.4755V3.68758Z"></path>
          <path d="M71.2768 18.5634H69.0708L68.8262 17.03H68.7651C68.1654 18.1871 67.267 18.7656 66.0675 18.7656C65.2373 18.7656 64.6235 18.4928 64.2284 17.9496C63.8333 17.4039 63.6357 16.5526 63.6357 15.3955V6.03751H66.4556V15.2308C66.4556 15.7906 66.5167 16.188 66.639 16.4256C66.7613 16.6631 66.9659 16.783 67.2529 16.783C67.4974 16.783 67.7326 16.7078 67.9584 16.5573C68.1842 16.4067 68.3488 16.2162 68.4593 15.9858V6.03516H71.2768V18.5634Z"></path>
          <path d="M80.609 8.0387C80.4373 7.24849 80.1621 6.67699 79.7812 6.32186C79.4002 5.96674 78.8757 5.79035 78.2078 5.79035C77.6904 5.79035 77.2059 5.93616 76.7567 6.23014C76.3075 6.52412 75.9594 6.90747 75.7148 7.38489H75.6937V0.785645H72.9773V18.5608H75.3056L75.5925 17.3755H75.6537C75.8724 17.7988 76.1993 18.1304 76.6344 18.3774C77.0695 18.622 77.554 18.7443 78.0855 18.7443C79.038 18.7443 79.7412 18.3045 80.1904 17.4272C80.6396 16.5476 80.8653 15.1765 80.8653 13.3092V11.3266C80.8653 9.92722 80.7783 8.82892 80.609 8.0387ZM78.0243 13.1492C78.0243 14.0617 77.9867 14.7767 77.9114 15.2941C77.8362 15.8115 77.7115 16.1808 77.5328 16.3971C77.3564 16.6158 77.1165 16.724 76.8178 16.724C76.585 16.724 76.371 16.6699 76.1734 16.5594C75.9759 16.4512 75.816 16.2866 75.6937 16.0702V8.96062C75.7877 8.6196 75.9524 8.34209 76.1852 8.12337C76.4157 7.90465 76.6697 7.79646 76.9401 7.79646C77.2271 7.79646 77.4481 7.90935 77.6034 8.13278C77.7609 8.35855 77.8691 8.73485 77.9303 9.26636C77.9914 9.79787 78.022 10.5528 78.022 11.5335V13.1492H78.0243Z"></path>
          <path d="M84.8657 13.8712C84.8657 14.6755 84.8892 15.2776 84.9363 15.6798C84.9833 16.0819 85.0821 16.3736 85.2326 16.5594C85.3831 16.7428 85.6136 16.8345 85.9264 16.8345C86.3474 16.8345 86.639 16.6699 86.7942 16.343C86.9518 16.0161 87.0365 15.4705 87.0506 14.7085L89.4824 14.8519C89.4965 14.9601 89.5035 15.1106 89.5035 15.3011C89.5035 16.4582 89.186 17.3237 88.5534 17.8952C87.9208 18.4667 87.0247 18.7536 85.8676 18.7536C84.4777 18.7536 83.504 18.3185 82.9466 17.446C82.3869 16.5735 82.1094 15.2259 82.1094 13.4008V11.2136C82.1094 9.33452 82.3987 7.96105 82.9772 7.09558C83.5558 6.2301 84.5459 5.79736 85.9499 5.79736C86.9165 5.79736 87.6597 5.97375 88.1771 6.32888C88.6945 6.684 89.059 7.23433 89.2707 7.98457C89.4824 8.7348 89.5882 9.76961 89.5882 11.0913V13.2362H84.8657V13.8712ZM85.2232 7.96811C85.0797 8.14449 84.9857 8.43377 84.9363 8.83593C84.8892 9.2381 84.8657 9.84722 84.8657 10.6657V11.5641H86.9283V10.6657C86.9283 9.86133 86.9001 9.25221 86.846 8.83593C86.7919 8.41966 86.6931 8.12803 86.5496 7.95635C86.4062 7.78702 86.1851 7.7 85.8864 7.7C85.5854 7.70235 85.3643 7.79172 85.2232 7.96811Z"></path>
        </g>
      </g>
    </g>
  </symbol>

</svg>

