<?xml version="1.0" standalone="no"?>
<!DOCTYPE svg PUBLIC "-//W3C//DTD SVG 20010904//EN"
 "http://www.w3.org/TR/2001/REC-SVG-20010904/DTD/svg10.dtd">
<svg version="1.0" xmlns="http://www.w3.org/2000/svg"
 width="450.000000pt" height="112.000000pt" viewBox="0 0 450.000000 112.000000"
 preserveAspectRatio="xMidYMid meet">

<g transform="translate(0.000000,112.000000) scale(0.100000,-0.100000)"
fill="#000000" stroke="none">
<path d="M606 1075 c-74 -26 -146 -122 -146 -194 0 -34 0 -34 41 -28 78 10
150 95 165 195 7 48 3 50 -60 27z"/>
<path d="M3592 997 c-49 -52 -13 -137 57 -137 44 0 67 14 79 50 13 36 -1 86
-28 100 -34 18 -85 12 -108 -13z"/>
<path d="M1060 525 l0 -485 65 0 65 0 2 361 3 361 145 -361 145 -361 55 0 55
0 145 361 145 361 3 -361 2 -361 70 0 70 0 0 485 0 485 -89 0 -89 0 -154 -385
c-84 -212 -155 -385 -158 -385 -3 0 -74 173 -158 385 l-154 385 -84 0 -84 0 0
-485z"/>
<path d="M205 811 c-129 -60 -190 -225 -151 -410 29 -138 130 -307 207 -346
38 -20 79 -19 139 5 64 25 106 25 170 0 28 -11 69 -20 92 -20 38 0 47 6 98 58
51 53 121 171 119 203 0 8 -19 28 -41 44 -113 82 -119 260 -13 354 l34 30 -20
24 c-10 14 -42 37 -71 51 -64 32 -135 34 -215 6 -72 -25 -95 -25 -161 0 -65
25 -135 25 -187 1z"/>
<path d="M4077 760 c-60 -16 -111 -46 -151 -91 -104 -114 -122 -314 -44 -469
59 -114 160 -167 307 -158 142 9 243 88 272 216 l7 32 -67 0 -66 0 -24 -46
c-61 -115 -230 -113 -298 3 -23 40 -28 61 -31 138 -4 78 -1 99 18 143 13 29
36 63 52 77 87 73 212 49 260 -50 22 -45 22 -45 74 -45 81 0 85 3 69 57 -25
84 -80 142 -170 182 -39 17 -159 23 -208 11z"/>
<path d="M3057 746 c-99 -37 -150 -102 -149 -191 0 -57 17 -98 54 -131 37 -34
77 -51 189 -79 116 -29 145 -44 159 -81 27 -69 -58 -134 -158 -120 -56 7 -92
31 -112 74 -15 31 -16 32 -86 32 l-72 0 8 -36 c21 -91 97 -154 210 -174 152
-27 291 28 341 135 25 53 24 101 -3 155 -29 57 -88 90 -218 120 -120 27 -155
44 -170 81 -29 70 35 125 138 117 68 -5 96 -22 119 -75 13 -32 14 -33 79 -33
l66 0 -7 33 c-16 74 -58 128 -125 163 -47 24 -209 30 -263 10z"/>
<path d="M2172 483 c4 -304 8 -325 85 -395 98 -87 278 -70 353 34 l30 41 0
-61 0 -62 70 0 70 0 0 355 0 355 -75 0 -74 0 -3 -244 c-3 -230 -4 -246 -24
-273 -54 -73 -151 -96 -222 -53 -57 35 -62 61 -62 330 l0 240 -76 0 -76 0 4
-267z"/>
<path d="M3580 395 l0 -355 70 0 70 0 0 355 0 355 -70 0 -70 0 0 -355z"/>
</g>
</svg>
