<?xml version="1.0" standalone="no"?>
<!DOCTYPE svg PUBLIC "-//W3C//DTD SVG 20010904//EN"
 "http://www.w3.org/TR/2001/REC-SVG-20010904/DTD/svg10.dtd">
<svg version="1.0" xmlns="http://www.w3.org/2000/svg"
 width="2861.000000pt" height="842.000000pt" viewBox="0 0 2861.000000 842.000000"
 preserveAspectRatio="xMidYMid meet">

<g transform="translate(0.000000,842.000000) scale(0.100000,-0.100000)"
fill="#000000" stroke="none">
<path d="M1957 7313 c-3 -1062 -4 -1079 -25 -1174 -40 -175 -107 -323 -208
-455 -29 -39 -430 -441 -890 -894 l-835 -823 373 -374 c205 -205 376 -373 380
-373 4 0 318 309 699 687 519 516 676 667 627 603 -488 -636 -575 -1512 -223
-2238 108 -223 206 -362 385 -546 269 -276 593 -464 970 -560 511 -130 1069
-70 1527 165 200 103 355 217 527 387 336 332 546 765 606 1247 15 121 16 388
1 505 -73 574 -369 1087 -822 1427 -258 193 -564 328 -886 389 -189 36 -478
44 -673 19 -372 -47 -724 -188 -1014 -407 l-80 -60 42 49 c179 205 266 331
361 524 113 228 185 481 210 743 7 70 11 497 11 1173 l0 1063 -529 0 -530 0
-4 -1077z m1999 -2978 c355 -62 666 -285 832 -595 169 -315 175 -685 17 -1006
-168 -343 -486 -585 -854 -648 -370 -63 -736 56 -1006 328 -294 297 -408 712
-300 1093 30 107 118 286 180 368 191 254 466 418 785 468 65 11 266 6 346 -8z"/>
<path d="M8010 3215 l0 -2025 868 0 c924 0 998 3 1218 51 505 109 839 406 924
820 67 325 9 631 -159 842 -130 163 -383 302 -636 349 -36 6 -63 13 -61 15 2
3 53 21 114 42 159 54 250 109 358 216 106 104 160 190 203 320 40 122 55 242
48 395 -8 159 -34 268 -96 395 -147 299 -444 490 -881 566 -178 31 -415 38
-1187 39 l-713 0 0 -2025z m1681 1450 c274 -41 456 -183 515 -402 20 -77 20
-250 -1 -327 -50 -186 -204 -327 -424 -389 -72 -20 -101 -21 -593 -25 l-518
-3 0 580 0 581 463 0 c351 0 485 -4 558 -15z m0 -1705 c361 -34 587 -191 654
-455 19 -76 19 -234 0 -309 -48 -182 -181 -317 -382 -387 -148 -51 -154 -52
-740 -56 l-553 -4 0 610 0 611 458 0 c251 0 505 -5 563 -10z"/>
<path d="M17450 4560 l0 -410 -255 0 -255 0 0 -275 0 -275 255 0 254 0 4 -897
c3 -815 5 -905 21 -972 68 -288 210 -439 481 -513 75 -20 107 -22 493 -26
l412 -4 0 276 0 275 -302 3 c-273 3 -306 5 -338 22 -78 41 -113 95 -130 197
-6 40 -10 357 -10 852 l0 787 355 0 355 0 0 275 0 275 -355 0 -355 0 0 410 0
410 -315 0 -315 0 0 -410z"/>
<path d="M27200 3493 c0 -813 5 -1534 10 -1603 28 -384 176 -585 495 -672 75
-20 106 -22 493 -26 l412 -3 0 275 0 275 -302 3 c-296 3 -304 4 -351 27 -30
14 -58 38 -74 62 -52 79 -53 90 -53 962 l0 807 360 0 360 0 0 275 0 275 -360
0 -360 0 0 410 0 410 -315 0 -315 0 0 -1477z"/>
<path d="M12335 4164 c-610 -95 -1035 -511 -1155 -1131 -42 -217 -43 -517 -1
-729 100 -515 435 -903 918 -1064 335 -112 749 -117 1060 -15 201 67 347 157
499 309 156 155 248 310 308 520 41 141 75 126 -283 126 l-308 0 -27 -73 c-76
-207 -246 -356 -481 -419 -119 -31 -356 -32 -473 0 -263 71 -454 255 -540 522
-24 74 -52 224 -52 281 l0 39 1114 0 1114 0 5 33 c34 191 6 487 -65 702 -165
494 -586 827 -1138 901 -132 17 -377 16 -495 -2z m510 -514 c221 -56 390 -190
485 -385 33 -68 80 -221 80 -262 0 -10 -166 -13 -795 -13 l-794 0 5 33 c38
218 140 389 299 502 108 78 243 131 375 149 74 9 266 -3 345 -24z"/>
<path d="M15310 4166 c-588 -85 -946 -394 -1015 -879 l-7 -47 308 2 308 3 8
39 c12 57 66 152 115 202 130 135 353 205 598 191 297 -19 498 -148 565 -364
16 -52 20 -93 20 -204 l0 -139 -412 0 c-420 0 -583 -8 -740 -35 -401 -70 -684
-270 -793 -560 -45 -118 -58 -198 -58 -355 0 -167 19 -254 79 -377 159 -320
586 -515 1077 -489 391 20 663 164 894 472 l22 29 1 -40 c2 -113 54 -238 128
-306 102 -95 206 -119 515 -119 l227 0 0 269 0 269 -98 4 c-117 4 -155 22
-192 89 l-25 44 -5 735 -6 735 -26 95 c-107 396 -399 643 -858 725 -129 23
-499 29 -630 11z m897 -1798 c-6 -148 -22 -218 -72 -323 -90 -188 -260 -322
-480 -377 -76 -19 -116 -22 -260 -22 -158 0 -176 2 -252 27 -183 61 -289 186
-300 356 -13 189 67 331 230 406 130 60 162 63 676 64 l464 1 -6 -132z"/>
<path d="M20465 4169 c-280 -41 -534 -183 -716 -401 l-47 -57 -16 87 c-8 48
-25 147 -37 220 l-22 132 -274 0 -273 0 0 -2060 0 -2060 315 0 315 0 0 782 0
783 32 -40 c221 -278 587 -424 1002 -401 350 20 639 138 871 358 322 304 484
776 446 1294 -25 338 -113 604 -274 830 -127 178 -270 300 -472 399 -143 71
-258 107 -410 130 -108 16 -341 18 -440 4z m258 -534 c220 -38 408 -161 536
-348 120 -176 180 -424 167 -687 -14 -294 -103 -509 -286 -690 -96 -96 -166
-141 -279 -181 -109 -38 -222 -53 -355 -46 -220 12 -366 76 -516 227 -169 169
-251 353 -281 627 -42 390 89 754 340 947 59 45 169 105 235 126 122 39 299
50 439 25z"/>
<path d="M23480 4166 c-642 -93 -1083 -507 -1221 -1146 -20 -92 -23 -134 -23
-345 -1 -185 3 -261 16 -330 135 -717 647 -1152 1401 -1191 712 -37 1300 334
1506 952 68 205 99 470 81 697 -20 246 -69 426 -167 620 -194 381 -533 630
-988 727 -130 28 -461 36 -605 16z m425 -531 c338 -59 593 -320 676 -694 40
-180 35 -418 -12 -599 -29 -111 -106 -265 -176 -353 -178 -223 -434 -325 -749
-298 -119 10 -212 37 -319 92 -109 56 -250 196 -318 317 -112 201 -160 475
-127 737 41 321 210 591 450 717 165 86 375 116 575 81z"/>
<path d="M25400 2670 l0 -1480 315 0 314 0 4 853 c3 939 1 905 68 1077 70 183
172 304 311 370 121 57 201 70 433 70 l195 0 0 297 0 296 -162 -6 c-90 -3
-201 -13 -247 -22 -231 -45 -413 -159 -554 -348 -27 -37 -51 -66 -52 -65 -1 2
-17 101 -35 221 l-33 217 -279 0 -278 0 0 -1480z"/>
</g>
</svg>
