<?xml version="1.0" standalone="no"?>
<!DOCTYPE svg PUBLIC "-//W3C//DTD SVG 20010904//EN"
 "http://www.w3.org/TR/2001/REC-SVG-20010904/DTD/svg10.dtd">
<svg version="1.0" xmlns="http://www.w3.org/2000/svg"
 width="3432.000000pt" height="940.000000pt" viewBox="0 0 3432.000000 940.000000"
 preserveAspectRatio="xMidYMid meet">

<g transform="translate(0.000000,940.000000) scale(0.100000,-0.100000)"
fill="#000000" stroke="none">
<path d="M4680 9249 c-1323 -114 -2523 -787 -3306 -1854 -455 -620 -745 -1343
-844 -2105 -128 -990 73 -2002 571 -2866 604 -1051 1636 -1840 2795 -2138 408
-105 740 -146 1168 -146 520 0 951 71 1442 235 911 305 1699 888 2265 1677
771 1074 1033 2449 714 3743 -274 1113 -962 2084 -1925 2717 -647 426 -1364
672 -2145 738 -139 11 -596 11 -735 -1z m80 -2553 c1201 -103 2258 -391 3296
-901 260 -127 307 -163 364 -278 65 -132 62 -267 -7 -399 -61 -117 -173 -195
-313 -220 -106 -18 -174 0 -381 103 -966 479 -1940 747 -3054 839 -217 18
-759 24 -1000 11 -371 -20 -757 -65 -1080 -127 -185 -36 -248 -40 -325 -20
-125 32 -220 108 -275 220 -84 170 -61 349 62 486 87 96 149 121 453 174 348
61 700 102 1070 126 210 13 974 4 1190 -14z m-35 -1580 c996 -98 1871 -348
2727 -783 201 -102 259 -144 300 -220 112 -205 2 -454 -225 -509 -105 -26
-156 -13 -367 95 -1369 699 -2925 916 -4415 615 -202 -40 -252 -40 -341 0 -74
34 -129 88 -166 164 -29 59 -33 76 -33 152 0 71 4 94 26 141 37 78 90 134 163
168 133 65 752 161 1256 195 154 10 914 -3 1075 -18z m-85 -1410 c581 -60
1106 -185 1635 -389 166 -64 329 -138 560 -255 257 -131 309 -170 338 -257 56
-162 -36 -323 -202 -355 -77 -14 -127 1 -291 90 -474 258 -1042 459 -1579 559
-373 70 -650 95 -1046 95 -418 -1 -753 -36 -1138 -120 -240 -52 -309 -44 -395
46 -120 123 -84 341 69 420 101 52 687 151 1069 180 177 13 799 4 980 -14z"/>
<path d="M25986 7255 c-144 -37 -288 -153 -351 -286 -108 -228 -43 -502 155
-650 229 -173 572 -150 770 50 108 109 150 214 150 371 0 182 -71 323 -215
425 -101 73 -185 98 -330 102 -81 1 -139 -3 -179 -12z"/>
<path d="M28585 7264 c-138 -19 -191 -29 -260 -51 -355 -112 -615 -402 -715
-798 -37 -144 -50 -277 -50 -490 l0 -175 -294 0 c-293 0 -295 0 -310 -22 -14
-19 -16 -72 -16 -370 0 -335 1 -349 20 -368 19 -19 33 -20 310 -20 l290 0 0
-1274 0 -1275 22 -15 c20 -14 80 -16 461 -16 283 0 445 4 458 10 19 11 19 35
19 1290 l0 1280 368 0 367 0 532 -1157 532 -1156 -290 -637 c-159 -350 -289
-645 -289 -654 0 -9 12 -21 26 -27 17 -6 199 -9 495 -7 413 3 470 5 484 19 14
13 1908 4301 1922 4350 2 9 -3 23 -12 33 -15 14 -62 16 -469 16 -419 0 -454
-1 -468 -17 -9 -10 -208 -481 -443 -1048 -236 -566 -431 -1033 -434 -1037 -3
-4 -199 457 -436 1024 -236 567 -438 1042 -448 1055 l-18 23 -711 0 -711 0 6
163 c7 172 19 236 62 324 76 154 267 252 491 253 125 0 252 -36 422 -121 137
-68 172 -77 172 -45 0 21 -310 758 -327 778 -35 39 -254 115 -415 143 -85 16
-289 27 -343 19z"/>
<path d="M13065 7104 c-312 -36 -495 -82 -715 -178 -268 -118 -499 -307 -646
-527 -168 -252 -231 -529 -193 -844 59 -484 325 -782 899 -1008 154 -60 287
-102 641 -202 377 -107 488 -144 624 -209 248 -119 327 -223 328 -431 1 -340
-188 -501 -630 -537 -354 -29 -722 53 -1119 247 -248 122 -447 265 -611 440
-49 52 -96 95 -104 95 -38 0 -39 -10 -39 -512 0 -418 2 -493 15 -518 18 -35
143 -144 238 -207 489 -326 1346 -481 1967 -357 636 127 1084 517 1215 1057
54 221 54 470 1 678 -110 433 -449 735 -1083 965 -54 20 -289 93 -523 164
-589 178 -740 243 -810 348 -118 178 -19 428 217 550 161 82 290 111 528 119
181 6 277 -2 435 -33 311 -62 659 -223 918 -426 71 -56 108 -61 129 -18 16 32
18 835 2 893 -8 31 -23 46 -85 87 -262 177 -650 308 -1054 354 -121 14 -454
20 -545 10z"/>
<path d="M23659 6069 c-420 -330 -770 -608 -776 -617 -10 -12 -13 -75 -13
-233 0 -214 0 -218 22 -233 19 -14 66 -16 315 -16 l293 0 0 -752 c0 -890 6
-984 77 -1196 107 -322 346 -545 676 -631 132 -34 239 -44 427 -38 241 8 433
51 602 136 l73 36 3 358 c2 300 0 358 -12 363 -8 3 -42 -9 -76 -26 -80 -40
-187 -68 -298 -76 -210 -15 -367 59 -444 210 -57 112 -58 124 -58 904 l0 712
421 0 c271 0 427 4 440 10 18 10 19 25 19 380 0 355 -1 370 -19 380 -13 6
-169 10 -440 10 l-421 0 0 441 c0 438 -3 479 -34 479 -8 0 -357 -270 -777
-601z"/>
<path d="M20835 5823 c-667 -58 -1215 -416 -1486 -971 -255 -523 -229 -1191
67 -1685 165 -274 436 -521 728 -662 530 -256 1212 -256 1742 0 412 199 729
554 877 981 73 210 103 418 94 654 -17 455 -180 840 -487 1151 -301 305 -686
482 -1149 529 -96 9 -294 11 -386 3z m404 -853 c458 -110 732 -569 645 -1081
-66 -383 -318 -650 -683 -724 -114 -24 -335 -16 -436 14 -100 30 -222 92 -301
155 -233 183 -360 512 -324 842 41 382 253 663 585 773 162 54 344 61 514 21z"/>
<path d="M17252 5799 c-195 -26 -381 -96 -539 -202 -171 -115 -295 -243 -427
-442 l-66 -99 0 325 c0 278 -2 328 -16 347 l-15 22 -444 0 c-390 0 -445 -2
-459 -16 -14 -14 -16 -227 -16 -2193 0 -2014 1 -2180 17 -2192 13 -11 98 -14
460 -14 429 0 445 1 459 19 12 17 14 152 14 875 l0 855 45 -73 c178 -288 432
-504 708 -600 159 -55 272 -74 457 -74 183 -1 292 15 442 64 553 179 943 702
1033 1383 20 153 19 430 -1 588 -53 412 -217 762 -479 1023 -205 205 -427 327
-703 385 -114 24 -359 34 -470 19z m111 -825 c40 -9 113 -35 162 -59 291 -139
452 -475 432 -899 -14 -286 -96 -498 -257 -658 -133 -132 -305 -198 -511 -198
-123 0 -203 18 -317 71 -268 124 -510 411 -643 762 l-33 88 29 87 c39 122 143
321 219 423 151 201 352 338 561 382 94 21 268 21 358 1z"/>
<path d="M33240 5790 c-209 -27 -385 -180 -429 -371 -16 -68 -13 -218 5 -280
87 -297 438 -443 732 -304 350 165 383 667 57 877 -99 64 -241 95 -365 78z
m171 -104 c159 -34 263 -133 304 -291 51 -198 -37 -395 -213 -478 -91 -43
-226 -50 -329 -18 -168 52 -273 200 -273 384 0 173 76 303 216 369 102 48 184
57 295 34z"/>
<path d="M33120 5300 l0 -240 55 0 55 0 0 95 0 95 28 0 c22 0 39 -16 100 -95
l73 -95 64 0 c36 0 65 4 65 9 0 5 -19 33 -43 63 -24 29 -56 70 -71 90 l-28 37
34 14 c56 23 88 70 88 127 0 41 -5 54 -33 83 -44 47 -88 57 -249 57 l-138 0 0
-240z m270 137 c16 -8 26 -23 28 -40 3 -23 -2 -30 -32 -42 -19 -8 -63 -15 -96
-15 l-60 0 0 55 0 55 68 0 c37 0 78 -6 92 -13z"/>
<path d="M25688 5739 c-17 -9 -18 -100 -18 -1669 0 -1630 0 -1659 19 -1670 13
-6 175 -10 458 -10 381 0 441 2 461 16 l22 15 0 1648 c0 1584 -1 1649 -18
1664 -17 15 -63 17 -463 17 -283 0 -450 -4 -461 -11z"/>
</g>
</svg>
